<svg width="10" height="14" viewBox="0 0 10 14" xmlns="http://www.w3.org/2000/svg">
    <defs>
        <clipPath id="xdetx3d20a">
            <path d="M360 0v720H0V0h360z"/>
        </clipPath>
        <clipPath id="tzqdxxyicb">
            <path d="M8.385 0c.047.006.07.03.07.07v.791c0 .047-.023.07-.07.07h-3.13v.071c.446.24.792 1.241 1.038 1.985l.035.255h2.057c.047.006.07.03.07.07v.791c0 .047-.023.07-.07.07H6.407c0 .885-.542 1.747-1.626 2.585-.96.55-1.643.826-2.048.826 0 .023-.023.035-.07.035l3.465 4.783v.07H4.432l-.013-.013-.035-.042c-.298-.37-1.008-1.59-4.13-5.66v-.035h.537c1.898 0 3.038-.682 3.419-2.047.023-.164.035-.296.035-.396v-.105H.07c-.047 0-.07-.024-.07-.07v-.792c.006-.047.03-.07.07-.07h4.14c-.14-.533-.44-1.475-.897-1.81-.632-.333-1.21-.5-1.731-.5H.07C.023.932 0 .908 0 .862V.07C.006.023.03 0 .07 0z"/>
        </clipPath>
    </defs>
    <g clip-path="url(#xdetx3d20a)" transform="translate(-39 -669)">
        <g clip-path="url(#tzqdxxyicb)" transform="translate(40 670)">
            <path fill="#FFF" d="M0 0h8.455v12.472H0V0z"/>
        </g>
        <path d="M46.128 682.472v-.07l-3.465-4.783c.047 0 .07-.012.07-.035.405 0 1.087-.276 2.048-.826 1.084-.838 1.626-1.7 1.626-2.584h1.978c.047 0 .07-.024.07-.07v-.792c0-.04-.023-.064-.07-.07h-2.057l-.035-.255c-.246-.744-.592-1.745-1.037-1.985v-.07h3.129c.047 0 .07-.024.07-.07v-.792c0-.04-.023-.064-.07-.07H40.07c-.04 0-.064.023-.07.07v.791c0 .047.023.07.07.07h1.512c.522 0 1.099.168 1.731.502.458.334.756 1.276.897 1.809h-4.14c-.04 0-.064.023-.07.07v.791c0 .047.023.07.07.07h4.175v.106c0 .1-.012.232-.035.396-.38 1.365-1.52 2.047-3.419 2.047h-.536v.036c3.121 4.07 3.831 5.289 4.13 5.659l.034.042.013.013h1.696z" stroke="#FFF" fill="none" stroke-miterlimit="10"/>
    </g>
</svg>
